<?xml version="1.0" encoding="UTF-8"?>
<!-- Generator: Adobe Illustrator 24.2.1, SVG Export Plug-In . SVG Version: 6.00 Build 0)  -->
<svg version="1.1" id="Layer_1" xmlns="http://www.w3.org/2000/svg" xmlns:xlink="http://www.w3.org/1999/xlink" x="0px" y="0px" viewBox="0 0 600 600" style="" xml:space="preserve">
<style type="text/css">
	.st0{fill:#3687C8;}
	.st1{fill:#293071;}
	.st2{fill:#7FD0DE;}
</style>
<g>
	<polygon class="st0" points="218.1,441.9 218.1,536.5 300,583.9 300,489.2  "/>
	<polygon class="st1" points="545.8,347.3 463.9,394.6 463.9,394.6 381.9,441.9 300,489.2 300,583.9 381.9,536.5 463.9,489.2    545.8,441.9  "/>
</g>
<g>
	<polygon class="st2" points="218.1,158.1 136.1,110.8 54.2,158.1 136.1,205.4  "/>
	<polygon class="st0" points="136.1,489.2 136.1,394.6 136.1,394.6 136.1,300 136.1,205.4 54.2,158.1 54.2,252.7 54.2,347.3    54.2,441.9  "/>
</g>
<g>
	<polygon class="st1" points="463.9,300 545.8,252.7 545.8,158.1 463.9,205.4  "/>
	<polygon class="st2" points="218.1,63.5 300,110.8 300,110.8 381.9,158.1 463.9,205.4 545.8,158.1 463.9,110.8 381.9,63.5    300,16.1  "/>
</g>
<g>
	<polygon class="st0" points="218.1,252.7 218.1,347.3 300,394.6 300,300  "/>
	<polygon class="st1" points="381.9,252.7 300,300 300,394.6 381.9,347.3  "/>
	<polygon class="st2" points="218.1,252.7 300,300 381.9,252.7 300,205.4  "/>
</g>
</svg>